<?xml version="1.0" encoding="UTF-8"?>
<svg id="Logo_4" xmlns="http://www.w3.org/2000/svg" version="1.1" viewBox="0 0 419.53 297.64">
  <!-- Generator: Adobe Illustrator 29.4.0, SVG Export Plug-In . SVG Version: 2.1.0 Build 152)  -->
  <defs>
    <style>
      .st0 {
        fill: none;
      }

      .st1 {
        fill: #cbccce;
      }

      .st2 {
        fill: #4d4f6c;
      }

      .st3 {
        fill: #5f5364;
        stroke: #fed27a;
        stroke-miterlimit: 10;
      }
    </style>
  </defs>
  <g id="Background">
    <g id="Objeto_generativo">
      <polygon class="st0" points="1.4 .36 419 .76 419.2 297.36 1 297.56 1.4 .36"/>
      <g>
        <path class="st1" d="M191.24,248.8c29.58-.23,60.39-.33,89.9.8,8.47.32,17.22.46,25.49,2.21-22.95,2.09-46.17,2.35-69.23,2.61-41.35.46-83.08.12-124.22-2.61.54-.57,2.28-.91,3.01-1,22.29-2.89,52.07-1.83,75.05-2.01Z"/>
        <path class="st2" d="M109.76,105.11c.4.04,1.79-.15,1.81.2-.22.27-2.12.49-1.81-.2Z"/>
        <g>
          <path class="st3" d="M205.7,39.06c37.06-1.25,72.99,15.29,95.4,44.6-5.99,4.72-8.48-7.73-11-8.2-1.56-.29-2.46,2.43-3.2,2.4-.26,0-2.92-3.14-3.6-3.6-7.4-4.96-5.87-2.09-12-2-.2,0-2.19-1.73-3.6-1.6-3.51.32-4.23,6.95-4.4,9.6-3.78-1.95-9.74-1.91-12.6,1.8-.61.79-.84,3.28-1,3.4-.29.21-5.55-.86-6.8-.8-2.44.13-9.2,1.32-11.6,2-.43.12-2.31.45-1.6,1.2,10.38-.67,20.82-.41,31.2-.4.32,0-.12.8.8.8.3,0,.1-.8.4-.8,5.49,0,12.68-.02,16.8,0,4.8.03,9.6-.08,14.4,0,.3,0,.58,0,.8,0,2.05.05,8.25-.43,9.6,0,.48.15,5.76,7.7,5.8,8.2.07,1.02-2.73,1.86-3.2,2.8.15,1.92,2.38-.41,1,2.6-1.2-1.3-6-4-7.6-3.6-.32.08-4.89,3.89-5,4.2-.28.82.38,3.72-.2,4.2-5.04-1.28-10.33-.24-15.4.6,1.97.53,4.5.18,6.6.2,2.84.03,9.52-.04,12.8,0,8.3.1,16.68.59,25,.6l-8,1.2c.82,5.01,3.64,8.15,5.2,13.2,5.8,18.78,4.39,41.65-1.4,60.2l-219.4-.6-2.8-13.6,1.2-.8c-2.28-.46-2.07-2.49-2.4-4.8-.86-5.95-.74-22.78.8-28.4.25-.92,2.31.41,1-1.8l3.4-.6c.41-.82-2.71-2.33-2.8-2.8-.32-1.72,5.43-19,6.4-19.6,14.87-1.26,30.76,1.61,45.2-1.6l-37.4-1.4,25-1c-.53-3.04-9.4-3.43-9.8-3.8-.52-.49.04-2.17-.2-2.6-3.33-6.04-5.41.08-6.2.2-1.7.26-2.18-5.87-5.6-1.2-.38-.66-2.97-3.94-3-4.2-.33-2.42,16.28-21.01,19.4-23.4h42.4l.8,3.2c-.94-6.02,7.38-3.85,11.6-4,.29-.01.11.82.4.8.41-.02,4.99-1.25,3.8-2.6-3.7-1.7-7.89-1.07-11.8-1.4-.07,0-1.13.81-1.2.8-.29-.03-3.41-2.49-5.2-2.8-1.92-.33-6.07.85-6.4.8-1.36-.19-5.36-12.01-9.6-3.2l-4.6-6.2c.05-.49,7.54-4.51,8.6-5,1.76-.81,3.79-.46,5.6-1.2s3.81-3.09,7.2-4c.12-.03.68,1.02,1.2.8.68-.3-.25-.98-.2-1,9.64-3.27,20.73-5.45,31-5.8Z"/>
          <g>
            <path class="st3" d="M155.26,124.86l12.24.2.4,41.74c1.6.49.14-2.01,1.4-2.61,1.54-.73,12.5.4,15.05.2l-.2,3.81-16.46-.4c.31,1.68.41,12.92-.4,13.24-.4.16-4.45.03-4.62-.2-.19-1.25.31-10.5-.2-10.64-2.82-.74-.39,3.04-1.2,3.61l-7.43-1,1.4-47.96Z"/>
            <path class="st3" d="M237.5,132.4l1,36.12.21-37.79c.1-.04,2.09-.31,2.14-.21,1.93,3.48-1.95,34.28.64,40.5l.18-38.5c1.51-1.68,1.7-.16,1.82-.18l1,39v-39.33l1-.2-.19,48.8-16.92-.58,1.17-47.44,1.94.39.21,39.73c2.37-5.72-1-39.62.64-42.21.32-.5,1.81-.28,2.14.43v41.63l.2-40.34c.93-1.17,1.86-.55,2.8.2Z"/>
            <path class="st3" d="M300.73,170.94c-.07-1.52.48-2.04,0-4.41-.02-.08,1.06-.81-.2-1.61-1.66-.2-12.65.35-13.04-.2-.15-.21-.21-3.45.6-3.81,1.5-.66,12.32.66,13.04-.2,2.11-2.5-12.8-.95-13.45-1.4-2.54-7.06,9.35-2.92,13.24-4.01l-1.4-1.61c2.23-.48,1.62-2.02,1.2-4.01-.08-.4,1.27-1.97-1.61-1.61,2.77-.51,1.81-1.62,1.61-4.01-.01-.12,1.2-1.52-.8-1.61,2-.67,1.52-3.62-.4-4.01l1.4-1.61c-3.9-1.09-15.79,3.05-13.24-4.01,1.8-.3,13.05.65,13.45-.6.54-1.72-8.15-.89-9.63-1v-4.82c4.04.27,6.55,2.66,6.22-3.21,1.27.76.12,3.93.8,4.41.2.14,4.61.94,4.82.8.27-.18-.05-5.01,4.01-2.81.13.07-.27,1.97.2,3.01.15.33,1.32.02,1.61.8.59,1.62-.04,11.46,0,14.05,0,.12.79.39.8,1.61,0,.3-.81.1-.8.4.06,6.56-.75,15.48,0,21.67.02.16,1.77-.2,1.2,2.41-.11.49-1.12.6-1.2.8-.23.54.32,2.18-.2,2.61-.46.38-1.49-.82-1.81-.2-.58,1.12.84,7.98-.6,8.63-7.27,1.92-5.58-4.93-5.82-10.44Z"/>
            <path class="st3" d="M127.7,132.03l5.82.6c-1,5.39,1.3,43.12,0,44.95-.45.64-6.1-.17-6.62.2-.33.24.6,5.49-3.61,3.61-1.8-.81.13-35.03-.6-39.53h3.61l1.2,33.71.2-43.55Z"/>
            <path class="st3" d="M217.67,142.93c1.74-.25,3.98.18,5.79,0l1.03,1-.58,37.43-4.42-.19-1-35.93v35.61h-6l.41-35.32c.39-1.4,3.38-2.41,4.76-2.61Z"/>
            <path class="st3" d="M140.7,135.62l6.22.2c-.53,5.16,1.88,44.63-.2,45.55-.2.09-4.21.09-4.41,0-1.23-.54.19-3.25-1.81-3.81l.2-41.94Z"/>
            <path class="st3" d="M134.69,133.75c2.65.69,3.66,2.51,4.81,4.81l-.19,38.27-4.81-.19.19-42.88Z"/>
            <path class="st3" d="M112.17,150.87c.48-.22,5.47-.19,5.82.6.61,1.37.76,29.29-.6,29.9-.48.22-5.47.19-5.82-.6-.61-1.37-.76-29.29.6-29.9Z"/>
            <path class="st3" d="M187.02,172.14c.55,2.1-.41,6.45,0,8.83-2.56-.04-11.15,1.24-13.04.4-1.39-.62-.09-6.7-.6-7.42-.42-.6-6.92,1.1-4.82-3.61.69-1.55,15.44.74,17.86.6.63.37.48.73.6,1.2Z"/>
            <path class="st3" d="M109.36,151.27c.63.09.96-.1,1.4.6-1.18,5.23,1.56,25.39,0,28.9-.35.79-4.55.81-5.02.6-1.33-.59.49-25.84-.2-29.1.09-.17,3.62-1.03,3.81-1Z"/>
            <path class="st3" d="M169.16,116.75c9.02-.79,5.59,2,7.22,8.43l.8-7.63c.94.1,6.63,2.1,6.82,2.41.24.39.43,7.51.2,7.83-.45.63-13.57-.06-15.45.2l.4-11.24Z"/>
            <path class="st3" d="M253.5,142.84l-.2,38.33c-.2.28-2.87.3-3.01.2-1.45-1.03.98-31.33-.6-35.52,2.27-1.6,3.88.97,3.81-3.01Z"/>
            <path class="st3" d="M238.19,104.31c.13-.1,1.23-.06,1.4.2.65.99-.62,18.79,0,19.67s7.65-2,4.21,6.62c-6.28-.95-13.28,3.52-11.44-6.22.71-1.6,5.04.66,5.62-.8.85-2.17-.81-18.68.2-19.47Z"/>
            <path class="st3" d="M254.7,144.45c2.52,12.14,4.12,24.62,3.21,36.92l-3.41-.2.2-36.72Z"/>
            <path class="st3" d="M280.89,180.97c-.2-6.33.27-12.73,0-19.06,0-.15-.8-1.32-.8-1.4-.05-.65-.2-2.6.6-2.81,1.81,1.89,1.09,1.8,3.81,2.21v20.87c-.47,1.36-3.08.22-3.61.2Z"/>
            <path class="st3" d="M295.99,172.14c.69,0,3.94-.18,4.21.2l-.2,9.03c-7.06.9-4.45-1.75-5.22-6.82-1.21,3-10.95.64-7.22-2.01.34-.24,7.41-.4,8.43-.4Z"/>
            <path class="st3" d="M169.16,158.49c1.93-.85,12.01.64,14.85,0,.27.19.32,4.04.2,4.21-.44.61-14.36.51-15.05.2-.91-.41-.91-4.01,0-4.41Z"/>
            <path class="st3" d="M169.16,146.86c1.93-.85,12.01.64,14.85,0,.27.19.32,4.04.2,4.21-.44.61-14.36.51-15.05.2-.91-.41-.91-4.01,0-4.41Z"/>
            <path class="st3" d="M169.16,135.22c.66-.29,13.79-.29,14.45,0,.83.37.75,4.01.6,4.21-.44.61-14.36.51-15.05.2-.91-.41-.91-4.01,0-4.41Z"/>
            <polygon class="st3" points="168.5 152.86 184.5 152.86 184.71 156.86 168.5 157.07 168.5 152.86"/>
            <polygon class="st3" points="168.5 140.86 184.5 140.86 184.71 144.86 168.5 145.07 168.5 140.86"/>
            <path class="st3" d="M169.16,130.05c1.92-.85,12.01.64,14.85,0l.2,3.81-15.45.2c-.33-.24-.51-3.61.4-4.01Z"/>
            <path class="st3" d="M300.61,166.52c.48,2.38-.07,2.89,0,4.41-3.1-.83-16.08,2.55-13.24-3.81.57-1.28,11.39-.28,13.24-.6Z"/>
            <path class="st3" d="M152.5,174.95c5.64,1.13,9.94-1.71,8.63,6.22l-8.63.2v-6.42Z"/>
            <path class="st3" d="M300.61,149.66c.41,1.99,1.02,3.53-1.2,4.01-.84.18-10.92.23-11.44,0-.75-.33-.8-2.96-.6-3.41.57-1.28,11.39-.28,13.24-.6Z"/>
            <path class="st3" d="M300.61,144.05c.2,2.39,1.16,3.51-1.61,4.01-3.21.59-8.03-.43-11.44,0-2.53-7.04,9.15-2.94,13.04-4.01Z"/>
            <path class="st3" d="M299.4,138.43c1.92.39,2.4,3.35.4,4.01-.95.31-12.11.14-12.44-.6-.2-.45-.15-3.08.6-3.41.52-.23,10.57-.18,11.44,0Z"/>
            <path class="st3" d="M280.54,180.97c-.61-.03-1.63,1.17-2.81-.2,1.63-5.14-.85-14.67.4-19.26.33-1.21,1.27-.09,1.61-1,0,.08.8,1.25.8,1.4.27,6.33-.2,12.73,0,19.06Z"/>
            <path class="st3" d="M243.5,132.41c.13-.07.21-.46,0-.4v39.33-38.93Z"/>
            <path class="st3" d="M237.5,132.01l1,36.52v-36.12c-.93-.63-.32-.3-1-.4Z"/>
            <path class="st3" d="M288.77,176.86h4.82c2.84,4.01-1.96,5.64-4.82,4.41-.52-.22-.28-3.35-1-3.81l1-.6Z"/>
            <path class="st3" d="M169.16,174.95c4.74-2.12,3.74,6,2.81,6.42-4.74,2.12-3.74-6-2.81-6.42Z"/>
            <path class="st3" d="M102.54,130c1.46-.6,8.55.29,10.64.2-2.35,1.09-8.35,2.74-10.64,1.81-.82-.33-.82-1.67,0-2.01Z"/>
            <path class="st3" d="M308.43,175.35c3.11,1.88,5,7.88-.6,5.42l.6-5.42Z"/>
            <path class="st3" d="M291.5,126.39v4.82c-1.1-.07-1.6-.18-2-.4v-4.82c.19-.11.96.34,2,.4Z"/>
            <path class="st3" d="M288.5,125.99v4.82c-.12-.03-1.25.93-1.61-.2-.56-1.76-.43-4.3,1.61-4.62Z"/>
            <path class="st3" d="M275.52,113.14c.09,2.06.84,5.42-.4,7.22-.13-2.14-.78-5.29.4-7.22Z"/>
            <path class="st3" d="M231.37,52.14c1.24,1.47.49,4.66.4,6.42-1.16-1.64-.55-4.54-.4-6.42Z"/>
            <path class="st3" d="M259.07,128.79c1.13,1.38.57,3.99.4,5.62-1.22-1.12-.5-4.15-.4-5.62Z"/>
            <path class="st3" d="M212.51,71.8c.96,1.2.97,4.41,0,5.62-.33-1.8-.33-3.81,0-5.62Z"/>
            <path class="st3" d="M157.12,115.95c.32.69.32,6.42,0,6.42-.13-1.99-1.43-4.62,0-6.42Z"/>
            <path class="st3" d="M281.14,94.28c2.05-.72,2.49,1.29,2.01,2.81-1.15-1.29-.26-1.51-2.41-2.01-.39-.2.27-.76.4-.8Z"/>
            <path class="st3" d="M120.2,119.96c.96,1.09.96,4.13,0,5.22-.33-1.66-.33-3.55,0-5.22Z"/>
            <path class="st3" d="M232.98,75.01c.34.64.29,5.61,0,5.62-.2-1.73-1.39-4.08,0-5.62Z"/>
            <path class="st3" d="M192.84,67.39c.4-.26,3.7.68,3.41,1.4-.63.09-5.43-.09-3.41-1.4Z"/>
            <path class="st3" d="M264.28,107.12c1.18.61.53,3.37.4,4.41-1.18-.61-.53-3.37-.4-4.41Z"/>
            <path class="st3" d="M195.25,76.62c1.05.99.63,3.14.4,4.41-1.18-.61-.53-3.37-.4-4.41Z"/>
            <path class="st3" d="M236.99,71c1.04.32.69,5.62.4,5.62-.06-1.87-.85-3.74-.4-5.62Z"/>
            <path class="st3" d="M100.93,176.15c.58-.05,2.58-.36,2.61.6l-4.62.2c-.06-.31,1.9-.79,2.01-.8Z"/>
            <path class="st3" d="M236.99,62.57c1.08.17.62,4.38.4,4.41-.57-1.38-.9-2.93-.4-4.41Z"/>
            <path class="st3" d="M156.72,111.14c1.16.47.55,3.1.4,4.01-1.23-1.05-.35-2.74-.4-4.01Z"/>
            <path class="st3" d="M192.84,60.16c1.13.3.57,2.81.4,3.61-1.13-.3-.57-2.81-.4-3.61Z"/>
            <path class="st3" d="M239.4,57.76l3.41.6c-.53.16-4.03.8-3.41-.6Z"/>
            <path class="st3" d="M169.16,96.69c1.13.3.57,2.81.4,3.61-1.13-.3-.57-2.81-.4-3.61Z"/>
            <path class="st3" d="M260.67,151.27c.47,1.25.58,4.61-.4,5.62.09-1.86.14-3.77.4-5.62Z"/>
            <path class="st3" d="M173.18,94.28c1.07.16.63,4.41.4,4.41-.16-1.45-.99-2.95-.4-4.41Z"/>
            <path class="st3" d="M213.31,44.91c.28,0,.31,4.84.4,5.62-1.04-.31-.69-5.62-.4-5.62Z"/>
            <path class="st3" d="M137.46,81.03c.97.77.68,2.54.4,3.61-.97-.77-.68-2.54-.4-3.61Z"/>
            <path class="st3" d="M190.03,42.91c1.1.18.59,2.52.4,3.21-1.09-.15-.6-2.49-.4-3.21Z"/>
            <path class="st3" d="M232.58,97.09c.93.75.93,2.86,0,3.61-.33-1.07-.33-2.53,0-3.61Z"/>
            <path class="st3" d="M169.16,77.02c1.1.18.59,2.52.4,3.21-1.09-.15-.6-2.49-.4-3.21Z"/>
            <path class="st3" d="M212.91,81.03c.19.69.7,3.03-.4,3.21-.31-.95-.53-2.51.4-3.21Z"/>
            <path class="st3" d="M179.2,87.86c.26-.09,2.71-.32,2.61.6l-3.01.2c-.39-.2.28-.76.4-.8Z"/>
            <path class="st3" d="M259.47,102.31c.34.53.29,4,0,4.01-.17-1.3-1.32-2.89,0-4.01Z"/>
            <path class="st3" d="M228.16,50.93c.33,1.15.68,3.77,0,4.82-.33-1.53-.33-3.29,0-4.82Z"/>
            <path class="st3" d="M232.98,111.54c.29,0,.34,4.98,0,5.62-.31,0-.31-5.62,0-5.62Z"/>
            <path class="st3" d="M107.76,139.23c1.79.11,3.66-.24,5.42.2,0,.27-4.98.51-5.42-.2Z"/>
            <path class="st3" d="M176.39,93.88c.33,1.67.33,3.55,0,5.22-.26,0-.55-4.65,0-5.22Z"/>
            <path class="st3" d="M121.8,131.2l2.61.2c-.59.92-2.77.94-2.61-.2Z"/>
            <path class="st3" d="M258.26,94.28c.4-.22,1.52-.23,1.81.6.32.94-3.29.2-1.81-.6Z"/>
            <path class="st3" d="M263.88,121.17c.36.24.41,2.88-.4,2.41-.39-.76-.39-1.87.4-2.41Z"/>
            <path class="st3" d="M169.16,113.94c.86.6.89,1.77,0,2.41-.33-.64-.33-1.76,0-2.41Z"/>
            <path class="st3" d="M295.99,91.47l1.4,1.4-.6.6c-.96-.53-1.4-.83-.8-2.01Z"/>
            <path class="st3" d="M143.88,98.69c.69.24.88,2.14.4,2.41-.77-.52-.81-1.57-.4-2.41Z"/>
            <path class="st3" d="M257.46,75.01c.88-.45.72,2.36.4,2.41-.11-.49-.98-2.11-.4-2.41Z"/>
            <path class="st3" d="M261.87,118.36c.42.24.36,2.45-.4,2.01-.51-.29-.21-1.75.4-2.01Z"/>
            <path class="st3" d="M123.81,84.24c.41.75.96,1.56.4,2.41-.76.08-.53-2.39-.4-2.41Z"/>
            <path class="st3" d="M228.56,109.93c.29,0,.34,3.13,0,3.61-.31,0-.31-3.61,0-3.61Z"/>
            <path class="st3" d="M202.47,57.35c1.11.04.66,1.65,0,2.01-.33-.49-.33-1.49,0-2.01Z"/>
            <path class="st3" d="M101.33,123.18c.15-.11,1.61-.21,1.4.6-.69.6-2.3.03-1.4-.6Z"/>
            <path class="st3" d="M256.66,58.56c.85.63.85,1.38,0,2.01-.33-.49-.33-1.49,0-2.01Z"/>
            <path class="st3" d="M184.01,63.37c.65-.17,1.03.12,1.4.6l-1.81.2c-.4-.2.3-.78.4-.8Z"/>
            <path class="st3" d="M104.95,124.38c1.07.45-1.61,1.76-1.81,1l1.81-1Z"/>
            <path class="st3" d="M137.46,75.82c.85.63.85,1.38,0,2.01-.33-.49-.33-1.49,0-2.01Z"/>
            <path class="st3" d="M148.29,117.16c.31,0,.31,3.21,0,3.21-.34-.39-.29-3.21,0-3.21Z"/>
            <path class="st3" d="M148.29,112.74c.68.09.29,1.89.4,2.41l-.6-.6.2-1.81Z"/>
            <path class="st3" d="M174.38,106.32c.31,0,.31,3.21,0,3.21-.34-.39-.29-3.21,0-3.21Z"/>
            <path class="st3" d="M286.36,110.73c.31.36.35,1.81,0,2.01-.82-.6-.88-1.34,0-2.01Z"/>
            <path class="st3" d="M228.96,75.41c.29,0,.34,2.45,0,2.81-.31,0-.31-2.81,0-2.81Z"/>
            <path class="st3" d="M231.77,46.52c.21-.12,1.1,1.13,0,1.61-.31-.3-.34-1.41,0-1.61Z"/>
            <path class="st3" d="M148.29,124.38c.28,0,.35,2.02,0,2.41-.31,0-.31-2.41,0-2.41Z"/>
            <path class="st3" d="M261.07,93.88c.69-.31.85,1,.4,1.2-.69.31-.85-1-.4-1.2Z"/>
            <path class="st3" d="M258.66,95.88c.46.11.59,1.75,0,1.61-.46-.11-.59-1.75,0-1.61Z"/>
            <path class="st3" d="M98.52,134.41c.32.15.33,1.33,0,1.61-.53.45-.43-1.81,0-1.61Z"/>
            <path class="st3" d="M138.66,125.99c.4.04,1.79-.15,1.81.2-.22.27-2.12.49-1.81-.2Z"/>
            <path class="st3" d="M256.66,152.07c.37.76.84,1.06,0,1.61-.33-.37-.33-1.22,0-1.61Z"/>
            <path class="st3" d="M139.46,113.14c.16-.08,1.01,1.08.4,1.2-.81.16-.79-1.02-.4-1.2Z"/>
            <path class="st3" d="M159.53,111.94c.16-.08,1.01,1.08.4,1.2-.81.16-.79-1.02-.4-1.2Z"/>
            <path class="st3" d="M281.54,102.71c.61-.22.88.59.4.8-.59.26-.88-.63-.4-.8Z"/>
            <path class="st3" d="M246.62,109.93c.31,0,.31,1.61,0,1.61s-.31-1.61,0-1.61Z"/>
            <path class="st3" d="M159.53,107.92c.61-.22.88.59.4.8-.59.26-.88-.63-.4-.8Z"/>
            <path class="st3" d="M141.07,113.94c.26-.03.96,1.13.4,1.2-.26.03-.96-1.13-.4-1.2Z"/>
            <path class="st3" d="M159.53,99.9c.61-.22.88.59.4.8-.59.26-.88-.63-.4-.8Z"/>
            <path class="st3" d="M246.62,117.56c.61-.22.88.59.4.8-.59.26-.88-.63-.4-.8Z"/>
            <path class="st3" d="M237.39,91.87c.61-.22.88.59.4.8-.59.26-.88-.63-.4-.8Z"/>
            <path class="st3" d="M278.33,91.47c.61-.22.88.59.4.8-.59.26-.88-.63-.4-.8Z"/>
            <path class="st3" d="M175.99,88.26c.5-.34.53,1.54,0,1.2-.31-.19-.35-.97,0-1.2Z"/>
            <path class="st3" d="M151.5,87.46c.61-.22.88.59.4.8-.59.26-.88-.63-.4-.8Z"/>
            <path class="st3" d="M154.31,82.64c.5-.34.53,1.54,0,1.2-.31-.19-.35-.97,0-1.2Z"/>
            <path class="st3" d="M104.14,158.49c.61-.22.88.59.4.8-.59.26-.88-.63-.4-.8Z"/>
            <path class="st3" d="M113.78,119.56c.61-.22.88.59.4.8-.59.26-.88-.63-.4-.8Z"/>
            <path class="st3" d="M285.55,74.61c.61-.22.88.59.4.8-.59.26-.88-.63-.4-.8Z"/>
            <path class="st3" d="M169.16,72.61c.61-.22.88.59.4.8-.59.26-.88-.63-.4-.8Z"/>
            <path class="st3" d="M272.31,66.18c.61-.22.88.59.4.8-.59.26-.88-.63-.4-.8Z"/>
            <path class="st3" d="M315.25,145.25c.61-.22.88.59.4.8-.59.26-.88-.63-.4-.8Z"/>
            <polygon class="st3" points="314.85 168.13 315.46 168.33 314.85 168.93 314.65 168.73 314.85 168.13"/>
            <polygon class="st3" points="296.79 111.14 297.39 111.34 297.19 111.94 296.99 111.74 296.79 111.14"/>
            <polygon class="st3" points="258.66 99.5 259.27 99.7 259.07 100.3 258.86 100.1 258.66 99.5"/>
            <polygon class="st3" points="315.5 115.55 315.5 115.95 315.5 115.86 315.5 115.86 315.5 115.55"/>
            <polygon class="st3" points="118.19 94.28 118.79 94.48 118.59 95.08 118.39 94.88 118.19 94.28"/>
            <polygon class="st3" points="117.5 94.28 117.5 94.68 117.5 94.86 117.5 94.86 117.5 94.28"/>
            <polygon class="st3" points="176.39 91.07 176.59 91.67 175.99 91.87 175.78 91.67 176.39 91.07"/>
            <polygon class="st3" points="195.25 81.44 195.85 81.64 195.25 82.24 195.05 82.04 195.25 81.44"/>
            <polygon class="st3" points="153.91 77.82 154.51 78.02 154.31 78.63 154.11 78.43 153.91 77.82"/>
            <polygon class="st3" points="147.49 149.26 148.09 149.46 147.89 150.07 147.69 149.87 147.49 149.26"/>
            <polygon class="st3" points="131.03 75.41 131.64 75.62 131.03 76.22 130.83 76.02 131.03 75.41"/>
            <polygon class="st3" points="147.49 136.82 148.09 137.02 147.49 137.62 147.29 137.42 147.49 136.82"/>
            <polygon class="st3" points="248.63 148.06 248.83 148.66 248.23 148.86 248.03 148.66 248.63 148.06"/>
            <g>
              <path class="st3" d="M186.89,180.97c-.41-2.38.55-6.73,0-8.83l1.61-1v-69.43c5.92,1.14,2.58-5.75,3.81-6.62.6-.43,8.55.48,9.03-.2.67-3.64-.88-27.56,0-28.9.17-.26,1.27-.3,1.4-.2,1.24.96-.99,26,.2,28.7.61,1.38,4.61-.18,5.22,1.2,1.22,2.77-2.68,6.05,3.21,6.02.35,26.45,1.35,53.49.2,79.67-8.23.33-16.48-.26-24.68-.4Z"/>
              <g>
                <polygon class="st3" points="191.64 106.32 192.64 137.02 192.04 168.13 191.04 137.42 191.64 106.32"/>
                <path class="st3" d="M195.65,106.32l1,31.51-.6,31.91c-1.27-21.09-.47-42.3-.4-63.41Z"/>
                <path class="st3" d="M208.9,106.32c1.27,20.15.47,40.43.4,60.6l-1-29.9.6-30.7Z"/>
                <path class="st3" d="M204.08,106.32c1.27,19.48.47,39.09.4,58.6l-1-28.7.6-29.9Z"/>
                <path class="st3" d="M200.07,106.32c1.27,19.21.47,38.56.4,57.79l-1-28.3.6-29.5Z"/>
              </g>
            </g>
            <g>
              <path class="st3" d="M271.69,130c.23,1.68,3.21.03,3.81,1.4l-.8,49.37-13.04.6c-.48-.21-.96-2.88-1-3.41-.25-3.25-.09-10.87,0-14.45.22-8.43,2.32-16.56,2.01-24.88l1.4,2.21c.35-1.7,3.23-8.6,4.21-9.43,1.45-1.23,2.7.19,3.41-1.4Z"/>
              <path class="st3" d="M264.28,151.67c1.26,8.04.48,16.39.4,24.48-1.26-8.04-.48-16.39-.4-24.48Z"/>
              <path class="st3" d="M267.09,151.67c.71,1.79,1.23,24.48,0,24.48-.33-8.14-.33-16.34,0-24.48Z"/>
              <path class="st3" d="M271.91,151.67c.33,8.14.33,16.34,0,24.48-1.07-8.09-.05-16.38,0-24.48Z"/>
              <path class="st3" d="M269.5,151.67c.33,8.14.33,16.34,0,24.48-.33-8.14-.33-16.34,0-24.48Z"/>
            </g>
          </g>
        </g>
        <g>
          <path class="st3" d="M114.78,202.24c4.68,1.4,9.76,2.82,14.65,3.21,50.32,4.07,106.05-3.05,156.93,0,6.67-.82,13.26-2.07,19.87-3.21s13.84-3.36,20.47-4.41c1.8-.29,4.21-1.03,6.02-.8-2.63,2.77-7.77,3.89-11.44,4.82-58.64,14.79-134.15.53-195.06,5.62-9.95-2.68-21.09-3.5-30.9-6.42-2.01-.6-6.97-1.92-7.43-4.01,6.53-.49,19.4,4.3,26.89,5.22Z"/>
          <path class="st3" d="M306.5,202.24c-6.61,1.14-13.2,2.39-19.87,3.21-50.88-3.05-106.61,4.07-156.93,0-4.89-.4-9.97-1.81-14.65-3.21,2.08.25,4.62.08,6.62.8,58.87-4.27,127.12,6.39,184.82-1.61v.8Z"/>
          <path class="st3" d="M326.97,197.83c-6.63,1.05-13.66,3.24-20.47,4.41v-.8c6.88-.95,13.51-3.13,20.47-3.61Z"/>
          <g>
            <path class="st3" d="M87.89,197.02c.46,2.09,5.42,3.41,7.43,4.01,9.81,2.93,20.95,3.74,30.9,6.42,60.91-5.09,136.41,9.17,195.06-5.62,3.66-.92,8.81-2.04,11.44-4.82,10.44,1.3-11.5,7.35-12.64,7.63-12.21,2.94-26.41,4.88-38.93,5.22-2.01,5.07,2.19,6.32,3.41,9.43,3.37,8.61-6.06,16.6-13.85,11.44-1.65-1.09-4.03-5.64-5.02-7.63-2.12-5.84.23-6.57,1.61-10.84.28-.87,1.12-.93.2-2.41h-118c.12,1-.97,1.52-1,1.61-.92,2.16,1.59,3.35,2.01,5.42.33,1.6-.56,3.57,0,5.02-.27.59-6.91,8.94-7.43,9.23-8.58,4.8-17.85-5-12.24-13.45,1.92-2.9,6.13-2.7,4.21-7.83-2.79-.25-6.12.35-8.83,0-6.59-.84-36.05-6.66-40.14-10.03-.51-.42-1.32-1.12-1.4-1.81.11-.3,2.72-.97,3.21-1Z"/>
            <path class="st3" d="M265.69,223.11c-2.26-4.55-3.2-7.05,1.61-10.84-1.37,4.27-3.72,5-1.61,10.84Z"/>
            <path class="st3" d="M150.5,221.91c-.56-1.44.33-3.42,0-5.02-.42-2.06-2.93-3.26-2.01-5.42,2.27,3.54,4.01,6.09,2.01,10.44Z"/>
            <g>
              <path class="st3" d="M273.51,215.49c10.59-2.37,12.88,11.99,5.62,14.45-11.66,3.95-14.14-12.54-5.62-14.45Z"/>
              <g>
                <path class="st3" d="M280.14,220.3l-.4,5.62c-2.56,1.7-3.92,3.89-7.43.4.92,4.36,6.66,2.79,8.23-.8.15-.13,1.43.66,2.01-2.41.06,6.71-6.87,8.48-11.24,4.41-.96-2.09-1.04-3.75-.4-6.02l.6,2.81c-.26-3.37,1.7-6.01,5.22-5.62l-.6-.8c2.48.22,2.64.22,4.01,2.41Z"/>
                <path class="st3" d="M277.73,216.69c1.09.49,2.52,2.16,3.61,2.81.05.08.78,1.52.8,1.61l.4,1.61c.01.13,0,.27,0,.4-.57,3.07-1.86,2.28-2.01,2.41,1.32-3.02,1.13-2.78-.4-5.22-1.38-2.19-1.54-2.19-4.01-2.41-2.74-.24-4.45.9-5.22,3.61-.64,2.27-.56,3.93.4,6.02-1.16-1.08-1.08-.81-1.61-2.41-.67-5.28,2.68-9.18,8.03-8.43Z"/>
                <path class="st3" d="M277.73,216.69c-5.35-.75-8.7,3.14-8.03,8.43-1.86-5.6,2.64-10.82,8.03-8.43Z"/>
                <path class="st3" d="M281.34,219.5c-1.09-.65-2.52-2.32-3.61-2.81,2.45.34,2.42.96,3.61,2.81Z"/>
                <path class="st3" d="M282.54,222.71l-.4-1.61c.17.58.33.69.4,1.61Z"/>
                <path class="st3" d="M276.12,217.89l.6.8c-3.52-.39-5.48,2.25-5.22,5.62l-.6-2.81c.77-2.72,2.48-3.85,5.22-3.61Z"/>
                <path class="st3" d="M279.73,225.92c.15-.1.71-.32.8-.4-1.57,3.59-7.31,5.17-8.23.8,3.5,3.48,4.87,1.3,7.43-.4Z"/>
                <path class="st3" d="M280.14,220.3c1.53,2.44,1.72,2.2.4,5.22-.1.08-.65.3-.8.4l.4-5.62Z"/>
              </g>
            </g>
            <g>
              <path class="st3" d="M136.25,215.49c11.08-2.44,12.88,13.33,4.01,14.85-11.64,1.99-11.54-13.19-4.01-14.85Z"/>
              <path class="st3" d="M136.05,217.49c.35-.07.82,0,1.2,0-.39,1.38-2.02,1.85-2.81,2.81-.55.66-2,2.02-2.01,3.01-.02,3.89,5.02,7.04,8.83,4.21.05-.03.77-.76.8-.8l.8.4c-.18.27-.65,1.08-.8,1.2-5.28,4.41-12.71-1.89-9.63-8.03.54-1.08,2.27-2.54,3.61-2.81Z"/>
              <path class="st3" d="M142.07,228.33c.15-.13.63-.94.8-1.2,3.94-5.95-.33-11.85-6.82-9.63-1.34.27-3.07,1.73-3.61,2.81,5.03-10.6,19.35,1.03,9.63,8.03Z"/>
              <g>
                <path class="st3" d="M142.07,226.72s-.76.77-.8.8c-5.33,1.98-9.38-2.06-6.82-7.22.79-.96,2.42-1.43,2.81-2.81,5.57-.03,8.33,4.69,4.82,9.23Z"/>
                <path class="st3" d="M142.87,227.13l-.8-.4c3.51-4.54.75-9.27-4.82-9.23-.38,0-.85-.07-1.2,0,6.5-2.22,10.76,3.68,6.82,9.63Z"/>
                <path class="st3" d="M134.45,220.3c-2.56,5.16,1.49,9.2,6.82,7.22-3.81,2.82-8.85-.33-8.83-4.21,0-.99,1.46-2.35,2.01-3.01Z"/>
                <path class="st3" d="M141.07,219.5c.59-.2,1.91,1.43,1.2,1.61-.28-.47-1.43-.97-1.2-1.61Z"/>
              </g>
            </g>
          </g>
        </g>
      </g>
    </g>
  </g>
</svg>